<svg width="102" height="99" viewBox="0 0 102 99" fill="none" xmlns="http://www.w3.org/2000/svg">
<path d="M101.253 38.134C96.8728 3.904 51.0628 -9.05608 23.5628 6.55392C-17.7872 29.9239 -0.367172 79.2037 42.2128 84.8537L42.7828 84.9641C44.1228 85.2341 44.4928 85.5939 44.5828 85.7439C44.6982 86.098 44.6982 86.4795 44.5828 86.8337C43.9928 89.2837 43.2729 91.664 43.7429 94.404C45.1329 101.754 52.8629 98.1437 56.7429 95.5837C61.6829 92.6837 66.3428 89.404 69.8428 86.884C86.4428 75.334 103.933 60.984 101.253 38.134ZM31.6028 53.6237H22.8428C22.5299 53.6211 22.2205 53.5566 21.9327 53.4338C21.6448 53.311 21.3841 53.1325 21.1657 52.9084C20.9472 52.6843 20.7752 52.4195 20.6597 52.1286C20.5443 51.8378 20.4876 51.527 20.4929 51.2141V32.8337C20.4929 29.6737 25.0628 29.6637 25.3428 32.8337V48.7839H31.6028C34.7528 48.7839 34.7628 53.6237 31.6028 53.6237ZM40.7728 51.1438C40.7728 54.3038 35.9229 54.3138 35.9229 51.1438V32.7839C35.9229 29.6339 40.7728 29.6239 40.7728 32.7839V51.1438ZM62.3928 51.1438C62.3786 51.6483 62.2084 52.1361 61.9055 52.5398C61.6025 52.9434 61.1819 53.2435 60.7015 53.3982C60.2211 53.5528 59.7045 53.5547 59.223 53.4035C58.7415 53.2524 58.3187 52.9554 58.0128 52.5539L49.3528 40.6638V51.1438C49.3735 51.4565 49.3298 51.7704 49.2244 52.0656C49.1189 52.3608 48.954 52.6312 48.7397 52.8601C48.5255 53.0889 48.2666 53.2715 47.979 53.3962C47.6914 53.5209 47.3813 53.5852 47.0678 53.5852C46.7543 53.5852 46.4443 53.5209 46.1567 53.3962C45.8691 53.2715 45.6101 53.0889 45.3959 52.8601C45.1817 52.6312 45.0168 52.3608 44.9113 52.0656C44.8059 51.7704 44.7621 51.4565 44.7828 51.1438V33.2937C44.4928 31.0237 47.7828 30.014 49.0628 31.884L57.6428 43.7839V32.7839C57.6428 29.6339 62.3328 29.6239 62.4028 32.7839L62.3928 51.1438ZM79.8528 53.0539H67.9929C67.6809 53.0606 67.3708 53.0048 67.0805 52.8903C66.7903 52.7758 66.5257 52.6047 66.3023 52.3869C66.0789 52.1691 65.9011 51.909 65.7793 51.6218C65.6575 51.3345 65.5941 51.0261 65.5928 50.7141V32.3137C65.5928 31.6762 65.8454 31.0652 66.2952 30.6135C66.745 30.1618 67.3554 29.9067 67.9929 29.904H79.4828C82.6429 30.194 82.6429 34.7639 79.4828 34.7639H70.4828V39.0539H77.7429C80.9029 39.3339 80.9129 43.904 77.7429 43.904H70.4828V48.4841H79.8428C80.1556 48.4634 80.4693 48.507 80.7645 48.6125C81.0597 48.718 81.3301 48.8827 81.559 49.0969C81.7878 49.3111 81.9702 49.57 82.095 49.8576C82.2197 50.1452 82.2841 50.4553 82.2841 50.7688C82.2841 51.0822 82.2197 51.3923 82.095 51.6799C81.9702 51.9675 81.7878 52.2264 81.559 52.4406C81.3301 52.6548 81.0597 52.82 80.7645 52.9255C80.4693 53.031 80.1556 53.0746 79.8428 53.0539H79.8528Z" fill="white"/>
</svg>
