<svg width="50" height="53" viewBox="0 0 50 53" fill="none" xmlns="http://www.w3.org/2000/svg">
<path d="M48.6014 26.9897C49.0253 26.5611 49.2631 25.9827 49.2631 25.3799C49.2631 24.7771 49.0253 24.1982 48.6014 23.7695L24.8315 0L24.6515 0.179688L24.4615 0L0.661499 23.7695C0.237686 24.1982 0 24.7771 0 25.3799C0 25.9827 0.237686 26.5611 0.661499 26.9897C1.09018 27.4136 1.66867 27.6514 2.27148 27.6514C2.8743 27.6514 3.45279 27.4136 3.88147 26.9897L23.0115 7.84961C23.4385 7.42642 24.0153 7.18896 24.6165 7.18896C25.2176 7.18896 25.7946 7.42642 26.2216 7.84961L45.3514 26.9897C45.5643 27.2041 45.8175 27.3741 46.0964 27.4902C46.3753 27.6063 46.6743 27.666 46.9764 27.666C47.2785 27.666 47.5777 27.6063 47.8566 27.4902C48.1355 27.3741 48.3886 27.2041 48.6014 26.9897Z" fill="white"/>
<path opacity="0.5" d="M39.4214 39.7896C39.5557 39.6599 39.6624 39.5048 39.7354 39.333C39.8083 39.1612 39.8459 38.9762 39.8459 38.7896C39.8459 38.6029 39.8083 38.4184 39.7354 38.2466C39.6624 38.0748 39.5557 37.9192 39.4214 37.7896L24.7614 23.1299L24.6514 23.2397L24.5314 23.1299L9.87134 37.7896C9.73706 37.9192 9.63031 38.0748 9.55737 38.2466C9.48443 38.4184 9.44678 38.6029 9.44678 38.7896C9.44678 38.9762 9.48443 39.1612 9.55737 39.333C9.63031 39.5048 9.73706 39.6599 9.87134 39.7896C10.001 39.9238 10.1563 40.0311 10.3281 40.104C10.4999 40.1769 10.6847 40.2144 10.8713 40.2144C11.058 40.2144 11.2427 40.1769 11.4146 40.104C11.5864 40.0311 11.7417 39.9238 11.8713 39.7896L23.6714 27.9897C23.8024 27.8579 23.9583 27.7535 24.1299 27.6821C24.3015 27.6107 24.4855 27.5737 24.6714 27.5737C24.8573 27.5737 25.0413 27.6107 25.2129 27.6821C25.3845 27.7535 25.5403 27.8579 25.6714 27.9897L37.4714 39.7896C37.7314 40.0454 38.0816 40.189 38.4464 40.189C38.8112 40.189 39.1614 40.0454 39.4214 39.7896Z" fill="white"/>
<path opacity="0.2" d="M34.4817 51.8599C34.6551 51.684 34.7524 51.4467 34.7524 51.1997C34.7524 50.9527 34.6551 50.7154 34.4817 50.5396L24.7218 40.7798L24.6517 40.8599L24.5718 40.7798L14.8118 50.5396C14.6383 50.7154 14.541 50.9527 14.541 51.1997C14.541 51.4467 14.6383 51.684 14.8118 51.8599C14.9877 52.0333 15.2248 52.1304 15.4718 52.1304C15.7188 52.1304 15.9558 52.0333 16.1317 51.8599L23.9917 44.0098C24.0766 43.9218 24.1784 43.8515 24.2909 43.8037C24.4034 43.7559 24.5245 43.7314 24.6467 43.7314C24.769 43.7314 24.89 43.7559 25.0026 43.8037C25.1151 43.8515 25.2169 43.9218 25.3018 44.0098L33.1617 51.8599C33.3376 52.0333 33.5748 52.1304 33.8218 52.1304C34.0688 52.1304 34.3058 52.0333 34.4817 51.8599Z" fill="white"/>
</svg>
