<svg width="94" height="85" viewBox="0 0 94 85" fill="none" xmlns="http://www.w3.org/2000/svg">
<path d="M13.66 74.36C13.1 72.68 11.98 71.17 11.66 69.36C11.5083 68.6387 11.5835 67.8882 11.8753 67.2114C12.1672 66.5346 12.6614 65.9647 13.29 65.58C14.4024 65.0041 15.6074 64.6284 16.85 64.47V64.37C15.4231 64.4755 13.9897 64.2848 12.64 63.81C11.6765 63.4922 10.8325 62.8888 10.22 62.08C9.9492 61.6044 9.79204 61.0725 9.76082 60.5261C9.72959 59.9797 9.82515 59.4334 10.04 58.93C10.58 57.17 11.43 56.11 11.25 54.2C10.94 50.92 6.31 49.34 4.72 47.2C3.65 45.8 3.40001 44.04 4.82001 42.76C9.30001 38.76 13.12 34.89 15.51 28.91C17.26 24.55 16.05 18.91 15.84 14.4C15.5398 9.74275 15.8762 5.06631 16.84 0.5V0H0V84.51H13.86C12.98 81.28 14.82 77.75 13.66 74.36Z" fill="#BC9B6A"/>
<path d="M93.3702 85.0001H90.2702C78.6465 85.0854 67.07 83.513 55.8902 80.3301C45.7454 77.396 36.7649 71.3778 30.1942 63.1103C23.6236 54.8427 19.7883 44.7354 19.2202 34.1901C19.2202 34.0801 19.2202 33.9601 19.2202 33.8501C22.8965 40.1398 27.6683 45.721 33.3102 50.3301H33.2202C33.8002 50.7801 34.4002 51.2301 35.0302 51.6801C59.7602 70.5701 93.3402 68.1001 93.3402 68.1001L93.3702 85.0001Z" fill="#BC9B6A"/>
<path d="M93.3403 68.14C93.3403 68.14 59.7603 70.61 35.0303 51.72C45.7903 59.46 63.7603 68.14 90.2703 68.14H93.3403Z" fill="#BC9B6A"/>
<path d="M91.7202 0.0500488V2.86005C91.7202 15.12 87.4302 25.3801 78.9802 33.3601C66.3102 45.3601 46.9802 49.18 33.2802 50.3601C27.6463 45.7394 22.8846 40.148 19.2202 33.85C19.6102 33.85 52.2802 35.44 67.4502 21.08C72.4502 16.35 74.8902 10.39 74.8902 2.86005V0.0500488H91.7202Z" fill="#BC9B6A"/>
</svg>
