<svg width="221" height="159" viewBox="0 0 221 159" fill="none" xmlns="http://www.w3.org/2000/svg">
<path d="M49.2498 107.45H43.0498V138.55H49.2498V107.45Z" fill="white"/>
<path d="M33.21 132.47C22.87 132.47 16.06 128.88 12.21 125.92C17.26 125.49 24.39 124.08 29.06 119.67C30.59 118.236 31.799 116.493 32.6073 114.557C33.4157 112.622 33.8051 110.537 33.75 108.44V107.44H27.54V108.44C27.5918 109.689 27.3748 110.934 26.9038 112.092C26.4329 113.249 25.7188 114.293 24.81 115.15C19.22 120.43 7.2 119.85 7.06 119.85H6.2V107.47H0V138.57H6.2V129.02C10.79 133.27 19.37 138.73 33.2 138.73H34.31V132.53L33.21 132.47Z" fill="white"/>
<path d="M89.63 107.47H63.2C61.811 107.473 60.4798 108.026 59.4977 109.008C58.5155 109.99 57.9626 111.322 57.96 112.71V138.52H64.17V113.68H73.31V134.93H79.52V113.68H88.66V138.52H94.87V112.71C94.8673 111.322 94.3144 109.99 93.3323 109.008C92.3502 108.026 91.0189 107.473 89.63 107.47Z" fill="white"/>
<path d="M220.54 113.71V107.47H195.31C193.962 107.515 192.687 108.091 191.763 109.073C190.84 110.055 190.342 111.363 190.38 112.71V133.47C190.342 134.818 190.84 136.126 191.763 137.108C192.687 138.09 193.962 138.666 195.31 138.71H220.53V132.47H196.6V126.17H216.68V119.96H196.6V113.67L220.54 113.71Z" fill="white"/>
<path d="M132.15 117H125.95V128.99H132.15V117Z" fill="white"/>
<path d="M175.31 138.55H181.52V111.68C181.523 110.808 181.251 109.956 180.74 109.249C180.23 108.541 179.509 108.013 178.68 107.74C177.841 107.446 176.93 107.422 176.077 107.671C175.223 107.921 174.469 108.431 173.92 109.13C172.18 111.35 167.52 115.13 155.64 115.65V107.47H149.44V138.57H155.64V121.87C161.86 121.58 169.75 120.33 175.31 116.3V138.55Z" fill="white"/>
<path d="M124.38 155.99C124.079 156.25 123.742 156.466 123.38 156.63C123.021 156.786 122.645 156.9 122.26 156.97C121.88 157.033 121.495 157.067 121.11 157.07C120.238 157.084 119.372 156.913 118.57 156.57C117.852 156.263 117.205 155.81 116.67 155.24C116.145 154.684 115.737 154.027 115.47 153.31C114.923 151.822 114.923 150.188 115.47 148.7C115.739 147.976 116.153 147.313 116.686 146.752C117.219 146.192 117.86 145.746 118.57 145.44C119.373 145.101 120.238 144.934 121.11 144.95C121.502 144.95 121.892 145.004 122.27 145.11C122.647 145.208 123.012 145.345 123.36 145.52C123.685 145.68 123.987 145.882 124.26 146.12C124.501 146.312 124.713 146.538 124.89 146.79L126.2 145.86C125.582 145.094 124.771 144.507 123.85 144.16C122.976 143.82 122.047 143.644 121.11 143.64C120.084 143.638 119.066 143.828 118.11 144.2C117.21 144.551 116.385 145.07 115.68 145.73C114.99 146.389 114.442 147.182 114.07 148.06C113.296 149.951 113.296 152.07 114.07 153.96C114.441 154.836 114.989 155.626 115.68 156.28C116.382 156.946 117.208 157.47 118.11 157.82C119.067 158.189 120.084 158.375 121.11 158.37C121.692 158.375 122.273 158.311 122.84 158.18C123.367 158.05 123.88 157.866 124.37 157.63C125.241 157.217 125.992 156.587 126.55 155.8L125.32 154.97C125.061 155.357 124.744 155.701 124.38 155.99Z" fill="white"/>
<path d="M138.83 144H137.34V158.02H145.69V156.71H138.83V144Z" fill="white"/>
<path d="M157.54 144H156.04V158.02H157.54V144Z" fill="white"/>
<path d="M180.52 155.88H180.48L171.71 144H169.84V158.02H171.33V146.02H171.38L180.15 158.02H182.02V144H180.52V155.88Z" fill="white"/>
<path d="M195.82 144H194.32V158.02H195.82V144Z" fill="white"/>
<path d="M218.1 155.99C217.799 156.25 217.462 156.466 217.1 156.63C216.741 156.787 216.365 156.901 215.98 156.97C215.6 157.033 215.215 157.067 214.83 157.07C213.957 157.083 213.092 156.913 212.29 156.57C211.572 156.263 210.925 155.81 210.39 155.24C209.864 154.686 209.459 154.028 209.2 153.31C208.64 151.824 208.64 150.186 209.2 148.7C209.462 147.983 209.866 147.326 210.39 146.77C210.927 146.203 211.573 145.751 212.29 145.44C213.093 145.101 213.958 144.933 214.83 144.95C215.222 144.95 215.612 145.004 215.99 145.11C216.367 145.207 216.732 145.345 217.08 145.52C217.406 145.682 217.712 145.884 217.99 146.12C218.225 146.315 218.434 146.54 218.61 146.79L219.92 145.86C219.302 145.094 218.491 144.507 217.57 144.16C216.696 143.819 215.767 143.643 214.83 143.64C213.787 143.632 212.752 143.822 211.78 144.2C210.88 144.551 210.055 145.07 209.35 145.73C208.662 146.39 208.114 147.183 207.74 148.06C206.966 149.95 206.966 152.07 207.74 153.96C208.115 154.834 208.662 155.623 209.35 156.28C210.052 156.946 210.878 157.469 211.78 157.82C212.753 158.195 213.788 158.381 214.83 158.37C215.412 158.374 215.993 158.311 216.56 158.18C217.087 158.05 217.6 157.866 218.09 157.63C218.961 157.217 219.712 156.586 220.27 155.8L219.05 154.97C218.785 155.354 218.465 155.698 218.1 155.99Z" fill="white"/>
<path d="M5.94002 103.61H7.44002V90.9004H12.37V89.5903H1.02002V90.9004H5.94002V103.61Z" fill="white"/>
<path d="M24.46 96.98H32.48V103.61H33.98V89.5903H32.48V95.6704H24.46V89.5903H22.96V103.61H24.46V96.98Z" fill="white"/>
<path d="M47.7798 96.98H54.8998V95.6704H47.7798V90.9004H55.3998V89.5903H46.2798V103.61H55.6498V102.31H47.7798V96.98Z" fill="white"/>
<path d="M140.04 132.47H113.69C112.38 132.47 110.17 132.56 109.32 131.18C108.47 129.8 109.49 128.29 109 126.83C108.707 126.244 108.463 125.636 108.27 125.01C108.214 124.745 108.241 124.469 108.349 124.22C108.456 123.971 108.638 123.761 108.87 123.62C109.365 123.383 109.895 123.227 110.44 123.16C109.831 123.252 109.209 123.19 108.63 122.98C108.269 122.859 107.954 122.629 107.73 122.32C107.632 122.146 107.575 121.952 107.565 121.752C107.554 121.553 107.59 121.354 107.67 121.17C107.948 120.628 108.099 120.03 108.11 119.42C108 118.22 106.29 117.64 105.71 116.87C105.6 116.765 105.513 116.638 105.453 116.498C105.394 116.358 105.363 116.207 105.363 116.055C105.363 115.903 105.394 115.752 105.453 115.612C105.513 115.472 105.6 115.346 105.71 115.24C107.416 113.886 108.765 112.135 109.64 110.14C110.28 108.53 109.84 106.46 109.76 104.8C109.648 103.026 109.79 101.245 110.18 99.5103H103.81V129.77C103.868 132.143 104.861 134.398 106.573 136.042C108.284 137.686 110.577 138.588 112.95 138.55H140L140.04 132.47Z" fill="white"/>
<path d="M143.41 104.47C143.41 99.1802 137.14 95.04 129.14 95.04C121.14 95.04 114.87 99.1802 114.87 104.47C114.87 109.76 121.14 113.9 129.14 113.9C137.14 113.9 143.41 109.75 143.41 104.47ZM129.02 107.62C124.6 107.62 122.28 105.68 122.28 104.2C122.28 102.53 124.6 100.79 129.02 100.79C133.44 100.79 135.89 102.56 135.89 104.2C135.89 105.84 133.45 107.61 129.02 107.61V107.62Z" fill="white"/>
<path d="M83.9698 76.0303C83.3898 74.3203 82.2498 72.7702 81.9698 70.9702C81.8138 70.2316 81.8906 69.4631 82.1897 68.77C82.4888 68.0769 82.9954 67.4933 83.6398 67.1001C84.7775 66.513 86.0096 66.1306 87.2798 65.9702V65.8604C85.8225 65.9673 84.3588 65.773 82.9798 65.29C81.9768 64.954 81.1032 64.3149 80.4798 63.4604C80.2067 62.9746 80.0485 62.4324 80.0173 61.876C79.9861 61.3196 80.0827 60.7633 80.2998 60.25C80.8598 58.44 81.7297 57.3604 81.5397 55.4004C81.2297 52.0504 76.4798 50.4 74.8598 48.29C73.7698 46.86 73.5097 45.0603 74.9597 43.7603C79.5497 39.6503 83.4597 35.6901 85.8997 29.5801C87.6898 25.1101 86.4497 19.3602 86.2397 14.7402C85.9246 9.9735 86.261 5.18607 87.2397 0.510254V0H69.9897V86.4702H84.1698C83.3098 83.1302 85.1498 79.4703 83.9698 76.0303Z" fill="white"/>
<path d="M165.49 69.6704H162.36C133.61 69.6704 114.68 59.6704 103.94 51.4604C118 50.2804 137.81 46.3401 150.8 34.0801C159.45 25.9201 163.8 15.4204 163.8 2.88037V0H146.58V2.88037C146.58 10.5804 144.1 16.68 138.98 21.52C123.45 36.21 89.9801 34.6001 89.6201 34.5801C89.6201 34.7001 89.6201 34.8204 89.6201 34.9404C90.196 45.7336 94.1208 56.0788 100.849 64.5381C107.577 72.9973 116.773 79.1499 127.16 82.1401C138.6 85.3952 150.446 87.0049 162.34 86.9204H165.51L165.49 69.6704Z" fill="white"/>
</svg>
