<svg width="144" height="138" viewBox="0 0 144 138" fill="none" xmlns="http://www.w3.org/2000/svg">
<path d="M38.7801 74.36C38.2201 72.68 37.1001 71.17 36.7801 69.36C36.6284 68.6387 36.7036 67.8882 36.9954 67.2114C37.2873 66.5346 37.7815 65.9647 38.4101 65.58C39.5225 65.0041 40.7275 64.6284 41.9701 64.47V64.37C40.5432 64.4755 39.1099 64.2848 37.7601 63.81C36.7966 63.4922 35.9526 62.8888 35.3401 62.08C35.0693 61.6044 34.9122 61.0725 34.8809 60.5261C34.8497 59.9797 34.9453 59.4334 35.1601 58.93C35.7001 57.17 36.5501 56.11 36.3701 54.2C36.0601 50.92 31.4301 49.34 29.8401 47.2C28.7701 45.8 28.5201 44.04 29.9401 42.76C34.4201 38.76 38.2401 34.89 40.6301 28.91C42.3801 24.55 41.1701 18.91 40.9601 14.4C40.6599 9.74275 40.9963 5.06631 41.9601 0.5V0H25.1201V84.51H38.9801C38.1001 81.28 39.9401 77.75 38.7801 74.36Z" fill="#BC9B6A"/>
<path d="M118.49 85.0001H115.39C103.767 85.0854 92.1901 83.513 81.0103 80.3301C70.8655 77.396 61.8851 71.3778 55.3144 63.1103C48.7437 54.8427 44.9084 44.7354 44.3403 34.1901C44.3403 34.0801 44.3403 33.9601 44.3403 33.8501C48.0166 40.1398 52.7884 45.721 58.4303 50.3301H58.3403C58.9203 50.7801 59.5203 51.2301 60.1503 51.6801C84.8803 70.5701 118.46 68.1001 118.46 68.1001L118.49 85.0001Z" fill="#BC9B6A"/>
<path d="M118.46 68.14C118.46 68.14 84.8804 70.61 60.1504 51.72C70.9104 59.46 88.8804 68.14 115.39 68.14H118.46Z" fill="#BC9B6A"/>
<path d="M116.84 0.0500488V2.86005C116.84 15.12 112.55 25.3801 104.1 33.3601C91.4303 45.3601 72.1003 49.18 58.4003 50.3601C52.7664 45.7394 48.0047 40.148 44.3403 33.85C44.7303 33.85 77.4003 35.44 92.5703 21.08C97.5703 16.35 100.01 10.39 100.01 2.86005V0.0500488H116.84Z" fill="#BC9B6A"/>
<path d="M81.01 136.04C80.8053 136.208 80.5802 136.349 80.34 136.46C80.1012 136.558 79.8533 136.631 79.6 136.68C79.352 136.72 79.1012 136.74 78.85 136.74C78.2839 136.747 77.7224 136.638 77.2 136.42C76.7331 136.215 76.3116 135.919 75.96 135.55C75.6179 135.187 75.3526 134.758 75.18 134.29C74.8198 133.323 74.8198 132.258 75.18 131.29C75.3529 130.819 75.6191 130.387 75.9628 130.021C76.3064 129.655 76.7204 129.362 77.18 129.16C77.7024 128.942 78.2639 128.833 78.83 128.84C79.0867 128.839 79.3423 128.873 79.59 128.94C79.8347 129.007 80.0724 129.098 80.3 129.21C80.5126 129.314 80.7109 129.445 80.89 129.6C81.0449 129.729 81.1827 129.877 81.3 130.04L82.15 129.43C81.7569 128.92 81.2359 128.524 80.64 128.28C80.0677 128.065 79.4615 127.953 78.85 127.95C78.1665 127.942 77.4876 128.064 76.85 128.31C76.2597 128.536 75.7194 128.876 75.26 129.31C74.8064 129.737 74.4485 130.255 74.21 130.83C73.9569 131.439 73.8267 132.091 73.8267 132.75C73.8267 133.409 73.9569 134.062 74.21 134.67C74.4511 135.244 74.8086 135.762 75.26 136.19C75.7194 136.624 76.2597 136.964 76.85 137.19C77.4876 137.437 78.1665 137.559 78.85 137.55C79.5867 137.549 80.314 137.385 80.98 137.07C81.2765 136.928 81.5523 136.746 81.8 136.53C82.0309 136.34 82.233 136.118 82.4 135.87L81.6 135.33C81.4411 135.596 81.2421 135.835 81.01 136.04Z" fill="#034437"/>
<path d="M90.44 128.22H89.46V137.36H94.91V136.51H90.44V128.22Z" fill="#034437"/>
<path d="M102.64 128.22H101.66V137.36H102.64V128.22Z" fill="#034437"/>
<path d="M117.62 135.97H117.59L111.87 128.22H110.65V137.36H111.63V129.54H111.66L117.38 137.36H118.6V128.22H117.62V135.97Z" fill="#034437"/>
<path d="M127.6 128.22H126.62V137.36H127.6V128.22Z" fill="#034437"/>
<path d="M142.13 136.04C141.92 136.206 141.692 136.347 141.45 136.46C141.214 136.556 140.97 136.63 140.72 136.68C140.469 136.72 140.215 136.74 139.96 136.74C139.394 136.747 138.833 136.638 138.31 136.42C137.843 136.215 137.422 135.919 137.07 135.55C136.745 135.179 136.497 134.748 136.34 134.28C135.98 133.312 135.98 132.247 136.34 131.28C136.513 130.809 136.779 130.377 137.123 130.011C137.467 129.645 137.881 129.352 138.34 129.15C138.863 128.932 139.424 128.823 139.99 128.83C140.247 128.828 140.503 128.862 140.75 128.93C140.995 128.996 141.233 129.086 141.46 129.2C141.674 129.302 141.873 129.433 142.05 129.59C142.208 129.716 142.346 129.864 142.46 130.03L143.31 129.42C142.907 128.922 142.379 128.539 141.78 128.31C141.208 128.093 140.602 127.982 139.99 127.98C139.307 127.971 138.628 128.093 137.99 128.34C137.4 128.566 136.86 128.906 136.4 129.34C135.953 129.772 135.596 130.289 135.35 130.86C135.086 131.448 134.945 132.085 134.936 132.729C134.927 133.374 135.05 134.014 135.297 134.61C135.544 135.206 135.911 135.744 136.374 136.193C136.837 136.642 137.387 136.991 137.99 137.22C138.628 137.466 139.307 137.589 139.99 137.58C140.727 137.583 141.456 137.419 142.12 137.1C142.417 136.958 142.693 136.776 142.94 136.56C143.171 136.37 143.373 136.148 143.54 135.9L142.75 135.36C142.574 135.612 142.365 135.841 142.13 136.04Z" fill="#034437"/>
<path d="M3.78032 101.88H4.76031V93.59H7.97032V92.74H0.570312V93.59H3.78032V101.88Z" fill="#034437"/>
<path d="M15.8604 97.56H21.0904V101.88H22.0604V92.74H21.0904V96.71H15.8604V92.74H14.8804V101.88H15.8604V97.56Z" fill="#034437"/>
<path d="M31.0603 97.56H35.7103V96.71H31.0603V93.59H36.0303V92.74H30.0903V101.88H36.2003V101.03H31.0603V97.56Z" fill="#034437"/>
<path d="M32.03 104.39H27.98V124.67H32.03V104.39Z" fill="#034437"/>
<path d="M21.56 120.73C16.6433 120.875 11.8198 119.368 7.86 116.45C11.16 116.18 15.8 115.25 18.86 112.38C19.8582 111.445 20.647 110.31 21.1744 109.048C21.7018 107.786 21.9559 106.427 21.92 105.06V104.39H17.92V105.06C17.9538 105.874 17.8124 106.685 17.5053 107.439C17.1982 108.193 16.7325 108.872 16.14 109.43C12.5 112.88 4.66 112.5 4.56 112.5H4V104.41H0V124.69H4V118.46C7 121.23 12.59 124.79 21.62 124.79H22.34V120.79L21.56 120.73Z" fill="#034437"/>
<path d="M58.3402 104.42H41.1202C40.2132 104.42 39.3433 104.78 38.7019 105.422C38.0605 106.063 37.7002 106.933 37.7002 107.84V124.67H41.7002V108.47H47.7002V122.28H51.7002V108.47H57.7002V124.67H61.7502V107.84C61.7502 106.935 61.3913 106.066 60.752 105.425C60.1128 104.784 59.2455 104.423 58.3402 104.42Z" fill="#034437"/>
<path d="M143.71 108.47V104.42H127.27C126.391 104.449 125.56 104.825 124.958 105.466C124.356 106.107 124.033 106.961 124.06 107.84V121.35C124.033 122.229 124.356 123.083 124.958 123.724C125.56 124.365 126.391 124.741 127.27 124.77H143.71V120.77H128.1V116.66H141.2V112.61H128.1V108.51L143.71 108.47Z" fill="#034437"/>
<path d="M86.09 110.62H82.04V118.44H86.09V110.62Z" fill="#034437"/>
<path d="M114.21 124.67H118.21V107.15C118.212 106.58 118.035 106.024 117.703 105.561C117.371 105.098 116.901 104.751 116.36 104.57C115.811 104.382 115.216 104.369 114.659 104.534C114.101 104.699 113.609 105.033 113.25 105.49C112.12 106.93 109.09 109.37 101.34 109.73V104.39H97.3403V124.67H101.34V113.78C105.39 113.59 110.54 112.78 114.17 110.15L114.21 124.67Z" fill="#034437"/>
<path d="M91.2304 120.68H74.0404C73.1904 120.68 71.7504 120.73 71.2004 119.83C70.6504 118.93 71.3104 117.95 70.9804 117C70.7945 116.615 70.6375 116.218 70.5104 115.81C70.4722 115.637 70.4893 115.455 70.5592 115.292C70.6292 115.129 70.7485 114.992 70.9004 114.9C71.2175 114.752 71.5543 114.651 71.9004 114.6C71.5031 114.655 71.0984 114.614 70.7204 114.48C70.4866 114.401 70.2835 114.251 70.1404 114.05C70.0837 113.933 70.0543 113.805 70.0543 113.675C70.0543 113.545 70.0837 113.417 70.1404 113.3C70.3225 112.946 70.4249 112.557 70.4404 112.16C70.3604 111.38 69.2504 111 68.8704 110.5C68.7993 110.43 68.7429 110.347 68.7044 110.255C68.6658 110.163 68.646 110.065 68.646 109.965C68.646 109.865 68.6658 109.767 68.7044 109.675C68.7429 109.583 68.7993 109.5 68.8704 109.43C69.9844 108.549 70.8665 107.409 71.4404 106.11C71.702 104.967 71.7292 103.783 71.5204 102.63C71.439 101.473 71.53 100.31 71.7904 99.1799H67.6304V118.91C67.6472 119.68 67.8159 120.44 68.1268 121.145C68.4376 121.85 68.8844 122.487 69.4418 123.02C69.9991 123.552 70.6559 123.969 71.3747 124.247C72.0934 124.525 72.8599 124.659 73.6304 124.64H91.2804L91.2304 120.68Z" fill="#034437"/>
<path d="M93.4201 102.44C93.4201 98.99 89.3301 96.29 84.1201 96.29C78.9101 96.29 74.8101 98.99 74.8101 102.44C74.8101 105.89 78.9001 108.59 84.1201 108.59C89.3401 108.59 93.4201 105.89 93.4201 102.44ZM84.0401 104.49C81.1501 104.49 79.6401 103.23 79.6401 102.26C79.6401 101.29 81.1501 100.04 84.0401 100.04C86.9301 100.04 88.5201 101.19 88.5201 102.26C88.5201 103.33 86.9201 104.49 84.0401 104.49Z" fill="#034437"/>
</svg>
