<svg width="186" height="186" viewBox="0 0 186 186" fill="none" xmlns="http://www.w3.org/2000/svg">
<path d="M140.17 0.0400391V5.62012H134.6V6.85986C134.6 13.5599 134.6 20.2635 134.6 26.9702C134.6 27.3802 134.6 27.8002 134.55 28.2202V28.1699C134.29 28.1699 134.04 28.0898 133.79 28.0898H124.16C123.91 28.0898 123.67 28.1402 123.4 28.1602V33.6899H128.93V39.3799H123.36V33.77H117.8V39.2998H112.27V33.75H117.74V28.1499H106.6V39.2798H101.03V33.79H95.3701V39.29H89.8001V33.7202C87.9601 33.7202 86.2401 33.7202 84.5201 33.7202C84.3701 33.7202 84.1301 34.23 84.1201 34.5C84.1201 36.07 84.1201 37.6402 84.1201 39.4502H78.4001L78.4901 33.7598H84.0801V28.1699H89.6801V22.48H84.1001V28.1899C82.5101 28.1899 80.9201 28.1398 79.3301 28.0698C78.7001 28.0698 78.5001 28.2799 78.5201 28.8999C78.5201 30.5299 78.5201 32.1498 78.5201 33.7798H73.0101V39.3301H74.5001L78.4201 39.4399C78.4754 39.771 78.5121 40.1048 78.5301 40.4399C78.5301 43.3899 78.5301 46.3498 78.5301 49.2998V50.4102H84.0901V44.98H101.09V50.5601H95.4101V56.1201H72.9601V61.6499H67.3701V50.54H72.8501V44.98H67.3701V28.1299H72.8901V22.48H78.4801V16.7998H89.6601V22.4399H95.3601V27.98C95.7601 27.98 96.0501 28.04 96.3601 28.04C99.4401 28.04 102.53 28.04 105.61 28.04C106.4 28.04 106.68 27.84 106.61 27.04C106.55 25.52 106.61 23.9902 106.61 22.4702H117.88V27.98H123.43V22.3599H129.01V0L140.17 0.0400391ZM89.8001 33.6201H95.2601V28.1699H89.8001V33.6201Z" fill="white"/>
<path d="M50.5398 151.36H44.8798V140.27H22.4798V134.65H39.2498V129.07H22.3798V123.42H28.0098V117.81H22.3798V112.2H16.7598V106.54H11.1798V101.03H5.59979V95.4102H0.0297852V84.04H5.59979V89.6499H22.4098V84.02H33.6098V89.7397H39.3698V95.2202H33.5998V89.8101H28.0098V95.3799H16.8798V101.02H22.4498V112.21H39.2998C39.2998 112.81 39.2998 113.28 39.2998 113.76C39.2998 115.13 39.3798 116.5 39.4098 117.87H33.6998V123.34H39.3898V117.86H44.9298V134.64H50.4998V151.36H50.5398Z" fill="white"/>
<path d="M39.3398 0.0400391C39.3398 2.04004 39.3398 4.1402 39.3398 6.2002C39.3398 16.8335 39.3398 27.4632 39.3398 38.0898V39.3398H1.33984C0.919844 39.3398 0.499844 39.3398 0.0898438 39.3398V0.00976562L39.3398 0.0400391ZM33.5998 33.6499V5.6499H5.65984V33.6499H33.5998Z" fill="white"/>
<path d="M185.1 0.0400391V39.2798H145.8V1.27979C145.8 0.859785 145.8 0.439785 145.8 0.0297852L185.1 0.0400391ZM151.51 33.6001H179.46V5.68994H151.51V33.6001Z" fill="white"/>
<path d="M0.00976562 145.8C0.869766 145.8 1.73976 145.8 2.60976 145.8H39.2198V185.1H0.00976562V145.8ZM5.64977 179.46H33.5998V151.54H5.64977V179.46Z" fill="white"/>
<path d="M117.81 0.0400391V16.8198H89.6499C89.6979 16.6023 89.7313 16.3821 89.7499 16.1602V0.689941C89.7353 0.471415 89.7053 0.254299 89.6599 0.0400391H101.03L101.12 5.7002H95.4099V11.1899H101.1V5.68018H112.22V0.0400391H117.81Z" fill="white"/>
<path d="M22.3798 123.42H16.8198V134.62H5.59976V128.98H11.1598V123.42H0.00976562V117.83H11.2298V112.25H16.7898V117.86H22.4098V123.47L22.3798 123.42Z" fill="white"/>
<path d="M0.00976562 50.5498H5.53976V72.9199H0.00976562V50.5498Z" fill="white"/>
<path d="M0.0100098 134.61H5.60001V140.21H0L0.0100098 134.61Z" fill="white"/>
<path d="M61.7199 5.64014H56.1099V0.0400391H61.6999L61.7199 5.64014Z" fill="white"/>
<path d="M0.00976562 101.07H5.60976V106.68H0.00976562V101.07Z" fill="white"/>
<path d="M67.2798 5.64014C67.2798 3.77014 67.2798 1.90004 67.2798 0.0400391H72.8798L72.7798 5.7002L67.2798 5.64014Z" fill="white"/>
<path d="M67.31 168.34H61.73V157.15H56.12V162.72H50.5V173.84H44.98V162.76H50.54V151.36H56.17V134.59H61.75V140.19H78.45C78.45 142.11 78.45 143.91 78.45 145.72H73.02V151.41H78.43V145.71H84.11V140.26H89.79C89.79 138.47 89.79 136.78 89.79 135.1C89.79 134.94 89.24 134.67 88.95 134.67C85.95 134.67 82.86 134.67 79.81 134.67H78.51V129.09L85.71 129.01C87.05 129.01 88.4 129.01 89.85 129.01V134.61H106.6V140.21H112.12V145.79H117.77V151.45H123.35V140.13H129.04V145.77H134.6V140.15H129.09V134.7H123.52V117.93H129.01V128.98H144.6C144.96 128.98 145.31 128.98 145.66 129.04V134.54H151.34V129.06H145.63C145.63 127.16 145.68 125.27 145.71 123.38H151.41V128.98H157V123.45H168.17V117.88H162.74V112.3H173.81V117.8H184.99V128.98H179.5V134.57H173.93V129.06H157.12V134.6H162.67V140.16H168.25V145.78H173.93V151.46H185.07V157.05H179.55V162.67H173.92V157.14H162.72V162.71H157.05V168.36H151.6V162.8H134.67V168.34H151.6C151.6 168.95 151.49 169.55 151.49 170.15C151.49 173.24 151.49 176.32 151.49 179.47H162.7V168.39H173.87V173.88H168.37V185.06H151.48V179.57H129.03V174.04H123.33C123.33 172.17 123.33 170.3 123.33 168.43H128.93V157.03H117.78V151.45H112.15V145.82H110.82L106.7 145.71V140.31H95.42V145.76C95.61 145.76 95.74 145.81 95.86 145.81C99.2933 145.81 102.73 145.81 106.17 145.81C106.354 145.789 106.535 145.749 106.71 145.69C106.66 145.805 106.623 145.926 106.6 146.05V156.97H100.96V151.57H95.38V162.66H106.6V156.98H112.1V168.35H106.66V173.93H122.3C122.64 173.93 122.99 173.99 123.3 174.02V179.51H106.6V185.08H101.01V168.4H89.77C89.77 170.11 89.77 171.8 89.77 173.48C89.77 173.64 90.27 173.9 90.54 173.9C92.08 173.9 93.62 173.9 95.24 173.9V185.05H89.8V179.55H84.12V168.33H72.87V157.11H67.25V168.33L67.31 168.34ZM156.97 156.98C157.004 156.808 157.027 156.635 157.04 156.46C157.04 151.29 157.04 146.12 157.04 140.95C157.04 140.16 156.6 140.19 156.04 140.19H141.15C140.87 140.19 140.59 140.19 140.26 140.25V156.98H156.97ZM61.74 151.36H67.23V145.86H61.74V151.36ZM89.74 157.05C87.98 157.05 86.29 157.05 84.6 157.05C84.45 157.05 84.17 157.35 84.16 157.52C84.16 159.2 84.16 160.89 84.16 162.61H89.76L89.74 157.05ZM162.74 151.44C164.47 151.44 166.1 151.44 167.74 151.44C167.94 151.44 168.28 151.14 168.28 150.97C168.28 149.29 168.28 147.6 168.28 145.88H162.73L162.74 151.44ZM84.06 151.44C82.33 151.44 80.69 151.44 79.06 151.44C78.87 151.44 78.54 151.75 78.54 151.92C78.54 153.58 78.54 155.24 78.54 156.92H84.09L84.06 151.44ZM129.06 156.95H134.6V151.51H129.08L129.06 156.95Z" fill="white"/>
<path d="M22.3798 84.0801H11.2798V78.5898H16.7898V72.98H22.3698V67.3501H28.0398V61.7397H33.5998V56.2202H16.8298V61.6699H11.2798V44.98H22.3698V50.5698H33.7798H33.7298V56.2002H44.8498V61.79H33.7198V67.3701H56.1198C56.1198 69.2201 56.1198 71.0602 56.1198 72.9102C55.7698 72.9102 55.4198 73 55.1198 73H44.9598V78.6401H50.5298V84.1099H56.1098C56.1098 82.8799 56.1098 81.7298 56.1098 80.5698C56.1098 78.0098 56.1098 75.4399 56.0398 72.8799L60.1498 73H61.5998V89.8101H50.5998V95.3901H56.1298V100.98H61.7398V123.41H56.0898V128.98H50.5998V117.86H56.0998V106.63H50.5198V101.15H44.9098V106.59H33.6998V100.98H39.3498V95.2202H44.8298V78.4399H39.3598V72.98H33.5998V67.3999H28.0198V78.5801H22.3198V84.1401L22.3798 84.0801Z" fill="white"/>
<path d="M168.31 84.0801L168.37 95.21C167.45 95.27 166.53 95.3601 165.61 95.3901C164.69 95.4201 163.76 95.3901 162.73 95.3901V106.68H151.54L151.45 99.6802C151.45 98.3102 151.45 96.9397 151.45 95.4897H134.6V100.98H123.48V95.3999H134.6V89.8799C134.98 89.8799 135.36 89.79 135.74 89.79H144.74C145.09 89.79 145.43 89.7897 145.79 89.7397V84.2002H134.6V89.9102C133.97 89.9102 133.33 89.8098 132.7 89.7998C129.97 89.7998 127.24 89.7998 124.51 89.7998H123.44V84.1899H134.55V78.5801H129.04V72.98H123.44V61.7798H117.8V56.1299H134.54V61.71H129.05V67.3301H134.6V72.8599H140.2V67.3799H145.73V72.9102H140.29V78.52H151.36C151.36 78.93 151.47 79.3398 151.47 79.7598C151.47 84.5698 151.47 89.3902 151.47 94.2002V95.3999C155.15 95.3999 158.68 95.3999 162.2 95.3999C162.37 95.3999 162.69 95.13 162.69 94.98C162.69 93.29 162.69 91.6098 162.69 89.7998H157.11V84.1602H168.34L168.31 84.0801Z" fill="white"/>
<path d="M50.54 27.98L54.54 28.1001C55.02 28.1001 55.54 28.1001 56.06 28.1001V33.6499H61.63V56.1099H56.1V61.7598H50.47V60.6401C50.47 57.7501 50.47 54.8697 50.47 51.9897C50.47 51.5497 50.54 51.1099 50.58 50.6699H56.04V33.79H50.51C50.51 34.02 50.51 34.1701 50.51 34.3301V49.98C50.5292 50.2008 50.5728 50.4187 50.64 50.6299C50.4271 50.5715 50.2097 50.5313 49.99 50.5098H33.75H33.8V44.8599H44.91V33.6802H50.6V27.98H50.54Z" fill="white"/>
<path d="M101.02 50.54H106.6V44.98H123.39V50.4702H117.87V56.1499H112.26V50.5898H106.6V56.1401H100.97L101.02 50.54Z" fill="white"/>
<path d="M151.6 106.65C151.6 108.06 151.53 109.46 151.5 110.87C151.5 111.28 151.5 111.69 151.5 112.2H145.83V123.44H140.31V106.65H151.6Z" fill="white"/>
<path d="M106.6 134.62V123.5H112.12V128.98H117.7V134.6H106.6V134.62Z" fill="white"/>
<path d="M50.54 22.3999V11.3101H56.03V22.3799H50.52L50.54 22.3999Z" fill="white"/>
<path d="M61.6899 5.60986H67.31V16.79H61.6899V5.60986Z" fill="white"/>
<path d="M61.6899 123.44H67.2299V134.59H61.6899V123.38V123.44Z" fill="white"/>
<path d="M100.95 123.5V128.98H95.4297V123.53L100.95 123.5Z" fill="white"/>
<path d="M50.5199 22.3799C50.5199 24.2399 50.5199 26.1102 50.5199 27.9702H44.9199V22.4399H50.4899L50.5199 22.3799Z" fill="white"/>
<path d="M78.42 129.07H72.98V123.48H78.4V129.1L78.42 129.07Z" fill="white"/>
<path d="M112.21 56.1299V61.6602H106.65V56.1201H112.27L112.21 56.1299Z" fill="white"/>
<path d="M56.1001 61.75H61.6001V67.3101H56.1001V61.6899V61.75Z" fill="white"/>
<path d="M123.45 106.66H128.93V112.16H123.45V106.66Z" fill="white"/>
<path d="M72.79 5.7002H78.43V11.1699H72.82V5.68018L72.79 5.7002Z" fill="white"/>
<path d="M151.36 78.52C151.404 78.3023 151.435 78.0816 151.45 77.8599V62.4502C151.45 62.2502 151.45 62.0598 151.4 61.7798H140.28V44.98H151.42V61.6499H162.69V56.1299H168.27V50.5601H185.04V61.6802H179.6V72.8901H173.9V84.0601H168.31V72.98H166.88L162.78 72.8599V67.4102H157.09V72.8501H162.79V78.52H151.34H151.36ZM168.36 61.7798V67.2397H173.83V61.7798H168.36Z" fill="white"/>
<path d="M168.37 95.21C168.698 95.2919 169.032 95.3456 169.37 95.3701H179.43V100.98H173.9V106.52H168.28V104.9C168.28 102.04 168.28 99.1798 168.28 96.3198C168.29 95.9352 168.32 95.5515 168.37 95.1699V95.21Z" fill="white"/>
<path d="M134.6 28.2202H140.2V39.3599H134.6C134.6 35.6299 134.6 31.8899 134.6 28.1499V28.2202Z" fill="white"/>
<path d="M72.8701 168.34V173.89H78.44V179.47H72.9201V173.98H67.3101V168.38H72.9301L72.8701 168.34Z" fill="white"/>
<path d="M179.53 89.71V84.2002H185.03V89.71H179.53Z" fill="white"/>
<path d="M157.12 44.98H162.65V50.4399H157.12V44.98Z" fill="white"/>
<path d="M134.6 39.3599V44.8701H129V39.3599H134.6Z" fill="white"/>
<path d="M173.93 145.81V140.29H179.42V145.78H173.9L173.93 145.81Z" fill="white"/>
<path d="M61.6899 179.55H67.2199V185.06H61.7199V179.53L61.6899 179.55Z" fill="white"/>
<path d="M61.7197 179.53H56.1797V173.98H61.6897V179.55L61.7197 179.53Z" fill="white"/>
<path d="M185.07 173.98V179.47H179.6V173.98H185.07Z" fill="white"/>
<path d="M39.35 78.4897V84.1099H33.54C33.54 82.6999 33.61 81.2999 33.65 79.8999C33.65 79.4899 33.65 79.0797 33.65 78.4897H39.35Z" fill="white"/>
<path d="M11.27 27.98V11.3198H27.97V27.98H11.27Z" fill="white"/>
<path d="M173.79 28.0298H157.13V11.2998H173.79V28.0298Z" fill="white"/>
<path d="M27.9798 173.88H11.2998V157.15H27.9798V173.88Z" fill="white"/>
<path d="M123.34 168.42H117.86V162.8H123.33V168.42H123.34Z" fill="white"/>
<path d="M145.84 151.4V145.91H151.37V151.4H145.84Z" fill="white"/>
<path d="M81.8698 105.09C81.5503 104.444 81.2795 103.776 81.0598 103.09C80.9984 102.796 81.0288 102.491 81.1469 102.216C81.265 101.94 81.465 101.708 81.7198 101.55C82.1712 101.322 82.6582 101.173 83.1598 101.11C82.5836 101.144 82.0062 101.066 81.4598 100.88C81.0604 100.743 80.7117 100.489 80.4598 100.15C80.3524 99.9575 80.2902 99.743 80.2781 99.5229C80.266 99.3029 80.3042 99.083 80.3898 98.8799C80.6944 98.2845 80.8618 97.6285 80.8798 96.96C80.7598 95.63 78.8798 94.9601 78.2298 94.1401C78.1113 94.0221 78.0172 93.8815 77.953 93.7271C77.8889 93.5726 77.8558 93.407 77.8558 93.2397C77.8558 93.0725 77.8889 92.9069 77.953 92.7524C78.0172 92.598 78.1113 92.4578 78.2298 92.3398C80.1141 90.8536 81.6045 88.9272 82.5698 86.73C83.2798 84.96 82.7898 82.6798 82.6998 80.8398C82.5854 78.9533 82.7232 77.06 83.1098 75.21V75.0098H76.2798V109.27H81.8998C81.5998 107.91 82.3398 106.47 81.8698 105.09Z" fill="white"/>
<path d="M114.18 102.57H112.93C101.54 102.57 94.0401 98.6199 89.7801 95.3599C95.3501 94.8899 103.2 93.3602 108.35 88.4702C110.037 86.8908 111.37 84.9716 112.261 82.8394C113.152 80.7071 113.582 78.4102 113.52 76.1001V74.98H106.68V76.1099C106.739 77.4847 106.501 78.8563 105.984 80.1313C105.466 81.4064 104.681 82.5552 103.68 83.5C97.5201 89.32 84.2801 88.6902 84.1201 88.6802V88.8198C84.3502 93.0961 85.9053 97.1948 88.5698 100.547C91.2343 103.9 94.8762 106.34 98.9901 107.53C103.524 108.814 108.218 109.45 112.93 109.42H114.19L114.18 102.57Z" fill="white"/>
</svg>
